<svg id="Layer_1" data-name="Layer 1" xmlns="http://www.w3.org/2000/svg" viewBox="0 0 287.46 58.94"><defs><style>.cls-1{fill:#68101c;}.cls-2{fill:#9b8f7d;}.cls-3{fill:#9c907d;}</style></defs><path class="cls-1" d="M84.37,19.46a6.17,6.17,0,0,1,1,3.65,5.86,5.86,0,0,1-1.93,4.69,7.94,7.94,0,0,1-5.39,1.68H68.64V6.1h9.11A7.91,7.91,0,0,1,83,7.71a5.58,5.58,0,0,1,1.9,4.49A5.71,5.71,0,0,1,84,15.42a5.42,5.42,0,0,1-2.55,2A5.38,5.38,0,0,1,84.37,19.46ZM71.76,16.22h5.49q4.57,0,4.57-3.72a3.3,3.3,0,0,0-1.13-2.75,5.46,5.46,0,0,0-3.44-.89H71.76Zm9.47,9.58a3.56,3.56,0,0,0,1.11-2.89,3.71,3.71,0,0,0-1.12-3,5.15,5.15,0,0,0-3.47-1h-6v7.76h6A5.36,5.36,0,0,0,81.23,25.8Z"/><path class="cls-1" d="M92.45,28.68a6.74,6.74,0,0,1-2.59-2.93A10.13,10.13,0,0,1,89,21.32a10.21,10.21,0,0,1,.91-4.46,6.74,6.74,0,0,1,2.59-2.93,7.92,7.92,0,0,1,7.81,0,6.7,6.7,0,0,1,2.6,2.93,10.35,10.35,0,0,1,.91,4.46,10.28,10.28,0,0,1-.91,4.43,6.7,6.7,0,0,1-2.6,2.93,7.92,7.92,0,0,1-7.81,0Zm7.07-3.08a7.05,7.05,0,0,0,1.1-4.28,7,7,0,0,0-1.11-4.26,4.11,4.11,0,0,0-6.3,0,7,7,0,0,0-1.11,4.26,7.06,7.06,0,0,0,1.09,4.28,4.16,4.16,0,0,0,6.33,0Z"/><path class="cls-1" d="M121.36,19.43V29.48h-3.12V19.6a4.91,4.91,0,0,0-.75-3,2.83,2.83,0,0,0-2.36-1,3.89,3.89,0,0,0-3,1.26A4.85,4.85,0,0,0,111,20.26v9.22h-3.12V13.3h3.06v2.58A5.18,5.18,0,0,1,113,13.66a5.86,5.86,0,0,1,3-.76Q121.36,12.9,121.36,19.43Z"/><path class="cls-1" d="M137,14.52a7.18,7.18,0,0,1,1.47,4.94v10h-3V26.79A4.52,4.52,0,0,1,133.76,29a4.85,4.85,0,0,1-2.7.75,5.78,5.78,0,0,1-2.72-.65,4.79,4.79,0,0,1-1.93-1.8,5,5,0,0,1-.69-2.59,4.22,4.22,0,0,1,.84-2.77,5,5,0,0,1,2.81-1.44,26.23,26.23,0,0,1,5.39-.43h.71v-1a4.07,4.07,0,0,0-.72-2.69,3,3,0,0,0-2.37-.83,9.29,9.29,0,0,0-5.12,1.69l-.93-2.35a9.83,9.83,0,0,1,2.92-1.44,10.65,10.65,0,0,1,3.29-.55A5.77,5.77,0,0,1,137,14.52ZM134.39,26a4.71,4.71,0,0,0,1.08-3.2v-.86h-.56a23,23,0,0,0-3.7.23,3.51,3.51,0,0,0-1.85.78,2.1,2.1,0,0,0-.56,1.57,2.59,2.59,0,0,0,.79,1.94,2.74,2.74,0,0,0,2,.78A3.51,3.51,0,0,0,134.39,26Z"/><path class="cls-1" d="M152.54,15.72l-1.88.2a4.46,4.46,0,0,0-3.2,1.46,4.82,4.82,0,0,0-1,3.11v9h-3.12V13.3h3v2.82q1.2-2.85,4.91-3.15l1-.07Z"/><path class="cls-1" d="M164.42,29.48V6.1h3.18V29.48Z"/><path class="cls-1" d="M186.43,19.43V29.48h-3.11V19.6a4.91,4.91,0,0,0-.76-3,2.81,2.81,0,0,0-2.36-1,3.89,3.89,0,0,0-3,1.26A4.85,4.85,0,0,0,176,20.26v9.22h-3.12V13.3H176v2.58A5.18,5.18,0,0,1,178,13.66a5.86,5.86,0,0,1,3-.76Q186.43,12.9,186.43,19.43Z"/><path class="cls-1" d="M190.35,27.65l1-2.42a8.15,8.15,0,0,0,5.4,1.93,4.16,4.16,0,0,0,2.32-.55,1.78,1.78,0,0,0,.8-1.54,1.75,1.75,0,0,0-.54-1.36,4.37,4.37,0,0,0-1.87-.83l-2.5-.6a5.83,5.83,0,0,1-3-1.62,4.08,4.08,0,0,1-1-2.85,4.39,4.39,0,0,1,1.65-3.55,6.59,6.59,0,0,1,4.34-1.36,8.42,8.42,0,0,1,3,.55,7.31,7.31,0,0,1,2.5,1.54l-.95,2.35a7.05,7.05,0,0,0-4.6-1.89,3.7,3.7,0,0,0-2.24.6,1.9,1.9,0,0,0-.82,1.62,1.84,1.84,0,0,0,.51,1.35,3.4,3.4,0,0,0,1.62.78l2.56.63a6.23,6.23,0,0,1,3.21,1.64,4.11,4.11,0,0,1,1,2.9,4.14,4.14,0,0,1-1.65,3.46,7.12,7.12,0,0,1-4.46,1.28A9.2,9.2,0,0,1,190.35,27.65Z"/><path class="cls-1" d="M215.17,27,215,29.58a10.5,10.5,0,0,1-1.61.13,5.66,5.66,0,0,1-4.36-1.54,6.31,6.31,0,0,1-1.44-4.46V15.88h-2.93V13.3h2.93V8.42h3.12V13.3h4.13v2.58h-4.13v7.7q0,3.54,3.05,3.54A9,9,0,0,0,215.17,27Z"/><path class="cls-1" d="M218,6.07h3.58V9.55H218Zm.22,23.41V13.3h3.12V29.48Z"/><path class="cls-1" d="M234.77,27l-.15,2.56a10.36,10.36,0,0,1-1.6.13,5.67,5.67,0,0,1-4.37-1.54,6.31,6.31,0,0,1-1.44-4.46V15.88h-2.93V13.3h2.93V8.42h3.12V13.3h4.14v2.58h-4.14v7.7q0,3.54,3.06,3.54A9,9,0,0,0,234.77,27Z"/><path class="cls-1" d="M251,13.3V29.48h-3V26.86A5.1,5.1,0,0,1,246,29a5.44,5.44,0,0,1-2.8.73q-5.49,0-5.49-6.5V13.3h3.12v9.88a4.56,4.56,0,0,0,.74,2.88,2.73,2.73,0,0,0,2.28.93,3.67,3.67,0,0,0,2.92-1.26,4.93,4.93,0,0,0,1.09-3.35V13.3Z"/><path class="cls-1" d="M264.47,27l-.15,2.56a10.5,10.5,0,0,1-1.61.13,5.7,5.7,0,0,1-4.37-1.54,6.36,6.36,0,0,1-1.43-4.46V15.88H254V13.3h2.93V8.42H260V13.3h4.13v2.58H260v7.7c0,2.36,1,3.54,3.05,3.54A9.1,9.1,0,0,0,264.47,27Z"/><path class="cls-1" d="M280.37,22H269.72c.22,3.43,1.81,5.14,4.75,5.14a7,7,0,0,0,4.69-1.82l1,2.35a7.76,7.76,0,0,1-2.59,1.53,9.26,9.26,0,0,1-3.15.56,7.44,7.44,0,0,1-5.7-2.22,8.66,8.66,0,0,1-2.08-6.14,10.12,10.12,0,0,1,.91-4.4,7,7,0,0,1,2.56-3,6.76,6.76,0,0,1,3.75-1.06,5.88,5.88,0,0,1,4.8,2.12,9,9,0,0,1,1.75,5.87ZM271,16.56A6,6,0,0,0,269.75,20h7.93a5.82,5.82,0,0,0-1.06-3.47,3.33,3.33,0,0,0-2.73-1.21A3.64,3.64,0,0,0,271,16.56Z"/><path class="cls-2" d="M71.87,39.72H74.4V41H71.87v8.33H70.38V41H68.64V39.72h1.74v-.31a4.23,4.23,0,0,1,.89-2.9A3.9,3.9,0,0,1,74,35.41l.74,0,.11,1.24-.85.06a2.25,2.25,0,0,0-1.63.68,2.79,2.79,0,0,0-.51,1.84Z"/><path class="cls-2" d="M77.65,48.85a4,4,0,0,1-1.48-1.75,6.91,6.91,0,0,1,0-5.26,4,4,0,0,1,1.48-1.74,4.4,4.4,0,0,1,4.47,0,4,4,0,0,1,1.5,1.74,6.91,6.91,0,0,1,0,5.26,4,4,0,0,1-1.5,1.75,4.4,4.4,0,0,1-4.47,0Zm4.26-1.65a4.47,4.47,0,0,0,.71-2.73,4.44,4.44,0,0,0-.72-2.71,2.39,2.39,0,0,0-2-.95,2.36,2.36,0,0,0-2,.95,4.44,4.44,0,0,0-.72,2.71,4.43,4.43,0,0,0,.71,2.72,2.37,2.37,0,0,0,2,1A2.4,2.4,0,0,0,81.91,47.2Z"/><path class="cls-2" d="M91.79,40.87l-1,.1a2.74,2.74,0,0,0-2,.92,3.09,3.09,0,0,0-.62,2v5.48H86.73v-9.6h1.44V41.4a3.27,3.27,0,0,1,3-1.87l.53,0Z"/><path class="cls-2" d="M105.23,40.12a4.12,4.12,0,0,1,1.4,1.76,6.53,6.53,0,0,1,.49,2.63,6.37,6.37,0,0,1-.49,2.61,4,4,0,0,1-1.39,1.73,3.62,3.62,0,0,1-2.08.61,3.31,3.31,0,0,1-1.82-.5,3.07,3.07,0,0,1-1.19-1.39v5.3H98.67V39.72h1.48v1.66a3.15,3.15,0,0,1,1.19-1.4,3.31,3.31,0,0,1,1.82-.49A3.5,3.5,0,0,1,105.23,40.12Zm-.34,7.07a4.41,4.41,0,0,0,.71-2.68,4.57,4.57,0,0,0-.71-2.71,2.6,2.6,0,0,0-4,0,4.45,4.45,0,0,0-.71,2.7,4.51,4.51,0,0,0,.71,2.71,2.34,2.34,0,0,0,2,1A2.39,2.39,0,0,0,104.89,47.19Z"/><path class="cls-2" d="M117.23,39.72v9.6h-1.45V47.68A3,3,0,0,1,114.6,49a3.23,3.23,0,0,1-1.72.46,3,3,0,0,1-2.4-1,4.28,4.28,0,0,1-.81-2.83v-6h1.49v5.91a3,3,0,0,0,.48,1.89,1.81,1.81,0,0,0,1.5.6A2.42,2.42,0,0,0,115,47.3a3.15,3.15,0,0,0,.72-2.16V39.72Z"/><path class="cls-2" d="M125.43,40.87l-1,.1a2.74,2.74,0,0,0-2,.92,3.09,3.09,0,0,0-.62,2v5.48h-1.48v-9.6h1.45V41.4a3.24,3.24,0,0,1,3-1.87l.53,0Z"/><path class="cls-2" d="M133.78,40.12a4.1,4.1,0,0,1,1.39,1.76,6.53,6.53,0,0,1,.5,2.63,6.36,6.36,0,0,1-.5,2.61,4.06,4.06,0,0,1-1.38,1.73,3.67,3.67,0,0,1-2.09.61,3.33,3.33,0,0,1-1.82-.5,3,3,0,0,1-1.18-1.39v5.3h-1.49V39.72h1.49v1.66a3.13,3.13,0,0,1,1.18-1.4,3.33,3.33,0,0,1,1.82-.49A3.53,3.53,0,0,1,133.78,40.12Zm-.35,7.07a4.34,4.34,0,0,0,.72-2.68,4.5,4.5,0,0,0-.72-2.71,2.6,2.6,0,0,0-4,0,4.45,4.45,0,0,0-.7,2.7,4.51,4.51,0,0,0,.7,2.71,2.34,2.34,0,0,0,2,1A2.39,2.39,0,0,0,133.43,47.19Z"/><path class="cls-2" d="M139.73,48.85a3.93,3.93,0,0,1-1.48-1.75,6.79,6.79,0,0,1,0-5.26,4,4,0,0,1,1.48-1.74,4.06,4.06,0,0,1,2.23-.61,4.11,4.11,0,0,1,2.24.61,4,4,0,0,1,1.49,1.74,6.79,6.79,0,0,1,0,5.26,4,4,0,0,1-1.49,1.75,4.2,4.2,0,0,1-2.24.61A4.14,4.14,0,0,1,139.73,48.85ZM144,47.2a4.47,4.47,0,0,0,.7-2.73,4.44,4.44,0,0,0-.71-2.71,2.62,2.62,0,0,0-4,0,4.51,4.51,0,0,0-.71,2.71,4.5,4.5,0,0,0,.7,2.72,2.65,2.65,0,0,0,4.06,0Z"/><path class="cls-2" d="M148.25,48.22l.5-1.19a4.59,4.59,0,0,0,1.46.88,4.84,4.84,0,0,0,1.67.27,2.68,2.68,0,0,0,1.52-.37,1.19,1.19,0,0,0,.52-1.05,1.23,1.23,0,0,0-.35-.91,2.57,2.57,0,0,0-1.15-.53L150.91,45a3.33,3.33,0,0,1-1.74-1,2.41,2.41,0,0,1-.61-1.66,2.57,2.57,0,0,1,.94-2.06,3.7,3.7,0,0,1,2.49-.79,5,5,0,0,1,1.78.32,3.72,3.72,0,0,1,1.42.94l-.5,1.16a3.91,3.91,0,0,0-2.7-1.12,2.43,2.43,0,0,0-1.45.38,1.27,1.27,0,0,0-.53,1.08,1.29,1.29,0,0,0,.32.91,2,2,0,0,0,1,.52l1.52.4a3.88,3.88,0,0,1,1.86,1,2.36,2.36,0,0,1,.6,1.67,2.43,2.43,0,0,1-.94,2,4,4,0,0,1-2.58.75A5,5,0,0,1,148.25,48.22Z"/><path class="cls-2" d="M165.46,44.77h-6.53a4,4,0,0,0,.84,2.53,2.8,2.8,0,0,0,2.18.86A4.24,4.24,0,0,0,164.82,47l.49,1.17a4.16,4.16,0,0,1-1.5.93,5.29,5.29,0,0,1-1.87.35,4.24,4.24,0,0,1-3.3-1.32,5.23,5.23,0,0,1-1.2-3.65,6.18,6.18,0,0,1,.53-2.61,4.25,4.25,0,0,1,1.5-1.76,3.9,3.9,0,0,1,2.19-.63,3.36,3.36,0,0,1,2.79,1.25,5.34,5.34,0,0,1,1,3.44Zm-5.66-3.25a3.74,3.74,0,0,0-.84,2.22h5.2a3.65,3.65,0,0,0-.68-2.23,2.21,2.21,0,0,0-1.8-.78A2.39,2.39,0,0,0,159.8,41.52Z"/><path class="cls-2" d="M170,39.72h2.53V41H170v8.33h-1.48V41h-1.75V39.72h1.75v-.31a4.18,4.18,0,0,1,.89-2.9,3.88,3.88,0,0,1,2.74-1.1l.73,0,.11,1.24-.84.06a2.23,2.23,0,0,0-1.63.68,2.73,2.73,0,0,0-.52,1.84Z"/><path class="cls-2" d="M181.9,39.72v9.6h-1.45V47.68A3.06,3.06,0,0,1,179.26,49a3.2,3.2,0,0,1-1.71.46,3,3,0,0,1-2.41-1,4.34,4.34,0,0,1-.8-2.83v-6h1.48v5.91a3,3,0,0,0,.48,1.89,1.81,1.81,0,0,0,1.5.6,2.39,2.39,0,0,0,1.89-.82,3.15,3.15,0,0,0,.72-2.16V39.72Z"/><path class="cls-2" d="M185,49.32V35.43h1.49V49.32Z"/><path class="cls-2" d="M194.75,49.32V35.43h1.49V49.32Z"/><path class="cls-2" d="M206.86,44.77h-6.53a4,4,0,0,0,.84,2.53,2.82,2.82,0,0,0,2.19.86A4.21,4.21,0,0,0,206.22,47l.49,1.17a4.16,4.16,0,0,1-1.5.93,5.25,5.25,0,0,1-1.87.35,4.23,4.23,0,0,1-3.29-1.32,5.23,5.23,0,0,1-1.2-3.65,6,6,0,0,1,.53-2.61,4.16,4.16,0,0,1,1.49-1.76,3.9,3.9,0,0,1,2.19-.63,3.36,3.36,0,0,1,2.79,1.25,5.34,5.34,0,0,1,1,3.44Zm-5.66-3.25a3.68,3.68,0,0,0-.83,2.22h5.19a3.59,3.59,0,0,0-.68-2.23,2.21,2.21,0,0,0-1.8-.78A2.39,2.39,0,0,0,201.2,41.52Z"/><path class="cls-2" d="M215.58,40.42a4.18,4.18,0,0,1,.84,2.85v6H215V47.68A2.72,2.72,0,0,1,213.91,49a3,3,0,0,1-1.65.47,3.39,3.39,0,0,1-1.59-.38,2.89,2.89,0,0,1-1.15-1,2.74,2.74,0,0,1-.42-1.48,2.52,2.52,0,0,1,.51-1.68A3.11,3.11,0,0,1,211.3,44a15.32,15.32,0,0,1,3.27-.27h.4v-.65a2.65,2.65,0,0,0-.46-1.74,1.83,1.83,0,0,0-1.48-.54,5.49,5.49,0,0,0-3.07,1l-.49-1.16a5.77,5.77,0,0,1,1.68-.86,6.15,6.15,0,0,1,1.89-.32A3.23,3.23,0,0,1,215.58,40.42Zm-1.32,7a3,3,0,0,0,.71-2.06v-.57h-.33a15.05,15.05,0,0,0-2.46.15,2.24,2.24,0,0,0-1.2.49,1.34,1.34,0,0,0-.36,1,1.67,1.67,0,0,0,.53,1.27,1.78,1.78,0,0,0,1.31.51A2.3,2.3,0,0,0,214.26,47.4Z"/><path class="cls-2" d="M227.43,35.43V49.32h-1.49V47.57A3,3,0,0,1,224.76,49a3.34,3.34,0,0,1-1.83.5,3.52,3.52,0,0,1-2.07-.63,4.09,4.09,0,0,1-1.4-1.77,6.5,6.5,0,0,1-.49-2.63,6.42,6.42,0,0,1,.49-2.6,4,4,0,0,1,1.4-1.73,3.58,3.58,0,0,1,2.07-.61,3.34,3.34,0,0,1,1.83.49,3.13,3.13,0,0,1,1.18,1.4v-6Zm-2.2,11.75a4.51,4.51,0,0,0,.71-2.71,4.45,4.45,0,0,0-.71-2.7,2.35,2.35,0,0,0-2-.94,2.4,2.4,0,0,0-2,.94,4.25,4.25,0,0,0-.73,2.66,4.45,4.45,0,0,0,.73,2.73,2.38,2.38,0,0,0,2,1A2.34,2.34,0,0,0,225.23,47.18Z"/><path class="cls-2" d="M238,44.77H231.5a4,4,0,0,0,.84,2.53,2.8,2.8,0,0,0,2.19.86A4.23,4.23,0,0,0,237.39,47l.49,1.17a4.16,4.16,0,0,1-1.5.93,5.29,5.29,0,0,1-1.87.35,4.24,4.24,0,0,1-3.3-1.32,5.23,5.23,0,0,1-1.2-3.65,6.18,6.18,0,0,1,.53-2.61,4.25,4.25,0,0,1,1.5-1.76,3.9,3.9,0,0,1,2.19-.63A3.36,3.36,0,0,1,237,40.74a5.34,5.34,0,0,1,1,3.44Zm-5.66-3.25a3.68,3.68,0,0,0-.83,2.22h5.19a3.59,3.59,0,0,0-.68-2.23,2.21,2.21,0,0,0-1.8-.78A2.39,2.39,0,0,0,232.37,41.52Z"/><path class="cls-2" d="M245.64,40.87l-1,.1a2.74,2.74,0,0,0-2,.92,3.09,3.09,0,0,0-.61,2v5.48h-1.49v-9.6H242V41.4A3.24,3.24,0,0,1,245,39.53l.53,0Z"/><path class="cls-2" d="M246.78,48.22l.5-1.19a4.66,4.66,0,0,0,1.45.88,4.93,4.93,0,0,0,1.68.27,2.68,2.68,0,0,0,1.52-.37,1.21,1.21,0,0,0,.52-1.05,1.23,1.23,0,0,0-.35-.91,2.56,2.56,0,0,0-1.16-.53l-1.5-.37a3.33,3.33,0,0,1-1.74-1,2.36,2.36,0,0,1-.61-1.66,2.54,2.54,0,0,1,.94-2.06,3.7,3.7,0,0,1,2.49-.79,5,5,0,0,1,1.78.32,3.68,3.68,0,0,1,1.41.94l-.49,1.16a3.91,3.91,0,0,0-2.7-1.12,2.48,2.48,0,0,0-1.46.38,1.41,1.41,0,0,0-.2,2,2,2,0,0,0,1,.52l1.52.4a3.8,3.8,0,0,1,1.85,1,2.32,2.32,0,0,1,.61,1.67,2.44,2.44,0,0,1-.95,2,4,4,0,0,1-2.57.75A5,5,0,0,1,246.78,48.22Z"/><path class="cls-2" d="M264.21,43.29v6h-1.49V43.39a3.11,3.11,0,0,0-.49-2,1.84,1.84,0,0,0-1.54-.61,2.53,2.53,0,0,0-2,.81,3.09,3.09,0,0,0-.73,2.18v5.5H256.5V35.43H258v5.83a3.07,3.07,0,0,1,1.22-1.32,3.5,3.5,0,0,1,1.79-.45Q264.21,39.49,264.21,43.29Z"/><path class="cls-2" d="M267.14,35.57h1.8v1.79h-1.8Zm.15,13.75v-9.6h1.49v9.6Z"/><path class="cls-2" d="M278.48,40.12a4.1,4.1,0,0,1,1.39,1.76,6.53,6.53,0,0,1,.5,2.63,6.36,6.36,0,0,1-.5,2.61,4.06,4.06,0,0,1-1.38,1.73,3.64,3.64,0,0,1-2.08.61,3.34,3.34,0,0,1-1.83-.5,3,3,0,0,1-1.18-1.39v5.3h-1.49V39.72h1.49v1.66a3.13,3.13,0,0,1,1.18-1.4,3.34,3.34,0,0,1,1.83-.49A3.52,3.52,0,0,1,278.48,40.12Zm-.35,7.07a4.34,4.34,0,0,0,.72-2.68,4.5,4.5,0,0,0-.72-2.71,2.6,2.6,0,0,0-4,0,4.45,4.45,0,0,0-.7,2.7,4.51,4.51,0,0,0,.7,2.71,2.6,2.6,0,0,0,4,0Z"/><rect class="cls-1" x="29.03" y="25.76" width="16.96" height="1.58"/><path class="cls-3" d="M49.08,3h-42V34A22,22,0,0,0,27.14,55.82v.08H29A22,22,0,0,0,51,34V3Zm1.13,1.89V34A21.21,21.21,0,0,1,29,55.15H27.89v0A21.21,21.21,0,0,1,7.84,34V3.79H50.21Z"/><path class="cls-1" d="M29,4.92H9V34A20.07,20.07,0,0,0,29,54h0A20.08,20.08,0,0,0,49.08,34v-29Zm-7.76,9.81L22,17.18l2.56,0-2.08,1.48.81,2.43-2.06-1.52L19.2,21.07,20,18.64l-2.08-1.48,2.56,0Zm-4.9-2.06.41-1.31.42,1.31h1.38l-1.12.8.43,1.3L16.77,14l-1.1.81.43-1.3L15,12.66ZM18.47,40.5h-5v-1h5Zm0-2.06h-5v-1h5Zm0-2.06h-5v-1h5Zm7.66,4.12h-5v-1h5Zm0-2.06h-5v-1h5Zm0-2.06h-5v-1h5ZM29,27.33h-17V25.76H29ZM47.5,34A18.5,18.5,0,0,1,29,52.44V6.49H47.5Z"/><polygon class="cls-1" points="39.34 37.92 39.85 37.13 39.21 37 39.07 36.35 38.28 36.86 37.49 36.35 37.35 37 36.71 37.13 37.22 37.92 36.71 38.71 37.35 38.85 37.49 39.49 38.28 38.98 39.07 39.49 39.21 38.85 39.85 38.71 39.34 37.92"/><polygon class="cls-1" points="39.54 36.67 40.08 36.78 41.28 34.93 39.42 36.13 39.54 36.67"/><polygon class="cls-1" points="37.02 39.18 36.48 39.07 35.28 40.92 37.14 39.72 37.02 39.18"/><polygon class="cls-1" points="39.54 39.18 39.42 39.72 41.28 40.92 40.08 39.07 39.54 39.18"/><polygon class="cls-1" points="37.02 36.67 37.14 36.13 35.28 34.93 36.48 36.78 37.02 36.67"/><polygon class="cls-1" points="38.28 32.68 37.35 37 33.03 37.92 37.35 38.85 38.28 43.17 39.21 38.85 43.53 37.92 39.21 37 38.28 32.68"/><path class="cls-1" d="M43.87,12.72V11.8h-4A2.12,2.12,0,0,0,39,12l-.68.28H38.2L37.52,12a2.12,2.12,0,0,0-.83-.17h-4v.92h-.75v7.56h5a.75.75,0,0,1,.55.23.4.4,0,0,0,.29.12h1a.38.38,0,0,0,.29-.12l0,0a.66.66,0,0,1,.46-.19h5.06V12.72Zm-9.4-.2V14H33Zm3.6,7.39a4.93,4.93,0,0,0-1.52-.24H33V14.31h1.79V12.52H37a1.05,1.05,0,0,1,1.06.93v6.46Zm5.45-6v5.72H40a4.94,4.94,0,0,0-1.53.24V13.54a.28.28,0,0,1,0-.09,1,1,0,0,1,1-.93h.26V15l.6-.48L41,15V12.52h2.51Z"/></svg>